<svg width="24" height="24" viewBox="0 0 24 24" fill="none" xmlns="http://www.w3.org/2000/svg">
<path fill-rule="evenodd" clip-rule="evenodd" d="M11.9999 2.49121C6.61589 2.49121 2.25 6.85613 2.25 12.2411C2.25 16.5491 5.04365 20.2036 8.91759 21.493C9.4047 21.5834 9.58359 21.2815 9.58359 21.0239C9.58359 20.7914 9.57455 20.0234 9.57035 19.2087C6.85791 19.7985 6.28556 18.0583 6.28556 18.0583C5.84204 16.9314 5.203 16.6317 5.203 16.6317C4.31823 16.0266 5.26969 16.0392 5.26969 16.0392C6.24858 16.1078 6.76427 17.0439 6.76427 17.0439C7.63386 18.5341 9.04514 18.1034 9.60151 17.8544C9.68902 17.2243 9.9417 16.794 10.2205 16.5505C8.05494 16.3043 5.77827 15.4681 5.77827 11.7322C5.77827 10.6678 6.1593 9.798 6.783 9.11505C6.68161 8.86964 6.34788 7.87798 6.87729 6.535C6.87729 6.535 7.69586 6.27296 9.55905 7.53441C10.3369 7.31822 11.1712 7.20956 11.9999 7.20585C12.8282 7.20956 13.6629 7.3179 14.4422 7.53408C16.3032 6.27264 17.1208 6.53468 17.1208 6.53468C17.6515 7.8775 17.3177 8.86931 17.2165 9.11472C17.8417 9.79768 18.22 10.6674 18.22 11.7319C18.22 15.4767 15.9391 16.3011 13.768 16.5426C14.1179 16.8452 14.4295 17.4387 14.4295 18.3482C14.4295 19.6527 14.4182 20.7026 14.4182 21.0238C14.4182 21.2832 14.5938 21.5873 15.0879 21.4915C18.9596 20.2008 21.75 16.5474 21.75 12.2411C21.7498 6.85646 17.3844 2.49121 11.9999 2.49121Z" fill="#C0C4CE"/>
<path d="M5.94279 16.4898C5.92132 16.5382 5.84511 16.5528 5.77568 16.5197C5.70464 16.488 5.66509 16.422 5.68801 16.3734C5.709 16.3233 5.78537 16.3096 5.85593 16.343C5.92697 16.3749 5.96749 16.4414 5.94279 16.4898ZM6.33771 16.9304C6.29137 16.9735 6.20047 16.9535 6.1388 16.8852C6.07486 16.8174 6.06291 16.7265 6.11022 16.6827C6.15833 16.6398 6.24649 16.6601 6.31042 16.728C6.37403 16.7967 6.38647 16.8867 6.33771 16.9304ZM6.72229 17.4918C6.66255 17.5335 6.56471 17.4945 6.50433 17.4078C6.44459 17.321 6.44459 17.2168 6.50594 17.1753C6.56617 17.1337 6.66255 17.1713 6.72391 17.2572C6.78332 17.3452 6.78332 17.4495 6.72229 17.4918ZM7.2488 18.0344C7.19552 18.0934 7.08153 18.0776 6.99822 17.9973C6.91313 17.9187 6.8894 17.8068 6.94284 17.748C6.99709 17.6889 7.11156 17.7054 7.19535 17.7852C7.28044 17.8636 7.30579 17.9758 7.2488 18.0344ZM7.97534 18.3494C7.95161 18.4258 7.84214 18.4605 7.73154 18.4279C7.62127 18.3945 7.5491 18.3052 7.57171 18.228C7.59431 18.151 7.70458 18.115 7.81582 18.1497C7.9261 18.183 7.99827 18.2718 7.97534 18.3494ZM8.77341 18.4077C8.77616 18.4881 8.68251 18.5547 8.56675 18.5563C8.45002 18.559 8.35557 18.4938 8.35444 18.4147C8.35444 18.3335 8.44614 18.2677 8.56271 18.2655C8.67848 18.2634 8.77341 18.3281 8.77341 18.4077ZM9.51578 18.2815C9.52966 18.3598 9.4491 18.4403 9.33398 18.4618C9.22096 18.4828 9.11602 18.434 9.10149 18.3564C9.0876 18.276 9.16962 18.1954 9.28264 18.1746C9.39792 18.1547 9.50125 18.2019 9.51578 18.2815Z" fill="#C0C4CE"/>
</svg>
