<svg width="24" height="24" viewBox="0 0 24 24" fill="none" xmlns="http://www.w3.org/2000/svg">
<path d="M2.25 16.3098L4.51363 14.9622C4.95028 15.7242 5.34782 16.3685 6.30077 16.3685C7.2139 16.3685 7.78993 16.0187 7.78993 14.6495V5.35089H10.5699V14.6879C10.5699 17.5202 8.88228 18.8097 6.42024 18.8097C5.54985 18.856 4.68559 18.6419 3.94131 18.1955C3.19703 17.7492 2.6069 17.0922 2.25 16.3098ZM12.0804 16.0159L14.344 14.7264C14.5957 15.2288 14.9863 15.6511 15.471 15.9448C15.9557 16.2385 16.5148 16.3917 17.0841 16.3867C18.2362 16.3867 18.9701 15.82 18.9701 15.0385C18.9701 14.1009 18.2155 13.7686 16.9447 13.2193L16.252 12.9297C14.2466 12.0901 12.916 11.035 12.916 8.80795C12.916 6.75652 14.5047 5.19416 16.9866 5.19416C17.7908 5.13682 18.5944 5.31372 19.2971 5.7028C19.9997 6.09188 20.5704 6.67591 20.9379 7.38202L18.7731 8.74987C18.631 8.39936 18.384 8.09959 18.0649 7.8903C17.7457 7.68101 17.3694 7.57207 16.9859 7.57793C16.8187 7.56129 16.6499 7.57913 16.4901 7.6303C16.3303 7.68147 16.1831 7.76486 16.0579 7.87513C15.9327 7.98541 15.8322 8.12015 15.7629 8.27076C15.6936 8.42138 15.657 8.58455 15.6554 8.74987C15.6554 9.57058 16.1717 9.90223 17.3621 10.4102L18.0569 10.7033C20.4201 11.6997 21.75 12.7156 21.75 15.0007C21.75 17.4621 19.7844 18.8104 17.1438 18.8104C14.5623 18.8104 12.8946 17.5986 12.0804 16.0159Z" fill="#EABD5F"/>
</svg>
