<svg width="24" height="24" viewBox="0 0 24 24" fill="none" xmlns="http://www.w3.org/2000/svg">
<path d="M12.5609 18.9438C12.3876 18.7905 12.2068 18.6368 12.034 18.4664C11.8959 18.594 11.7665 18.7137 11.6296 18.8327C9.91994 20.3065 8.15773 20.92 7.11311 20.3236C6.10259 19.7528 5.78424 18.0665 6.18868 15.945C6.23182 15.715 6.28363 15.4851 6.3441 15.2551C6.16268 15.2017 5.98992 15.1526 5.81717 15.0949C3.66612 14.3607 2.25 13.1683 2.25 11.9754C2.25 10.8258 3.57137 9.70975 5.63517 8.99422C5.86628 8.91733 6.1101 8.84097 6.36085 8.77262C6.30308 8.55102 6.25743 8.33796 6.2141 8.13185C5.78193 5.97832 6.0841 4.25785 7.10329 3.67849C8.16524 3.06495 9.92745 3.7212 11.6972 5.26279C11.8006 5.35624 11.9046 5.45876 12.0167 5.56075C12.1808 5.4075 12.3362 5.25425 12.5003 5.11809C14.1758 3.67635 15.8421 3.07349 16.8613 3.65286C17.9232 4.24877 18.2347 6.08885 17.7597 8.36359C17.7337 8.50883 17.702 8.645 17.665 8.79077C17.8811 8.85058 18.0966 8.91839 18.2953 8.98674C20.4025 9.70227 21.7672 10.8183 21.7498 11.9936C21.7498 13.1945 20.2904 14.3788 18.0521 15.1115C17.9313 15.1456 17.8106 15.1883 17.6892 15.222C17.7412 15.3923 17.7753 15.5627 17.81 15.733C18.2589 17.9394 17.9134 19.7453 16.8688 20.3417C16.5945 20.4944 16.279 20.5721 15.9588 20.566C15.0014 20.5644 13.7858 19.9818 12.5609 18.9438ZM14.2538 15.8174C13.7577 16.5305 13.2126 17.2135 12.6216 17.862C12.7857 18.0222 12.9498 18.169 13.1139 18.3052C14.5387 19.5146 15.8514 19.9664 16.4649 19.6171C16.6523 19.468 16.8054 19.2856 16.9152 19.0808C17.025 18.876 17.0891 18.6529 17.104 18.4248C17.2286 17.5794 17.1934 16.7205 17 15.8863C16.974 15.733 16.9422 15.5797 16.8965 15.418C16.0264 15.6062 15.1435 15.7396 14.2538 15.8174ZM7.01663 16.0902C6.66303 17.9057 6.92187 19.2588 7.53662 19.6086C7.75442 19.6927 7.98957 19.7315 8.2254 19.7223C8.46124 19.7131 8.692 19.656 8.90132 19.5552C9.71565 19.2389 10.4573 18.782 11.0865 18.209C11.2159 18.1065 11.3366 17.9874 11.4666 17.8684C10.8627 17.2197 10.3031 16.5368 9.79109 15.8238C8.90481 15.7554 8.02469 15.6305 7.15703 15.45C7.10329 15.6727 7.05996 15.8852 7.01663 16.0902ZM12.0433 17.2826C12.4234 16.865 12.803 16.4053 13.1832 15.8943C12.803 15.9113 12.4061 15.9199 12.0086 15.9199C11.6111 15.9199 11.2401 15.9113 10.8686 15.8943C11.2569 16.3962 11.6463 16.865 12.0433 17.2826ZM10.229 8.96859C9.90087 9.43689 9.58136 9.92975 9.27919 10.4509C8.97701 10.9619 8.70141 11.4815 8.45008 11.9994C8.7095 12.5105 8.98568 13.03 9.28785 13.5586C9.59003 14.0697 9.90954 14.5732 10.2377 15.049C10.8074 15.0831 11.4037 15.1024 12.008 15.1024C12.6124 15.1024 13.2167 15.0853 13.7956 15.0431C14.1065 14.5748 14.426 14.0718 14.7287 13.5522C15.0315 13.0327 15.3158 12.5046 15.5665 11.9936C15.3158 11.4911 15.0309 10.9715 14.7287 10.4514C14.4266 9.93135 14.1071 9.43689 13.7875 8.96912C13.2098 8.9264 12.6129 8.90077 12.0086 8.90077C11.4042 8.90077 10.808 8.92587 10.229 8.96859ZM7.37947 14.6672C7.972 14.7923 8.57173 14.8862 9.17576 14.9486C8.96834 14.625 8.7615 14.3009 8.56275 13.9602C8.37266 13.6281 8.18257 13.2959 8.00982 12.9638C7.75964 13.5426 7.55222 14.1145 7.37947 14.6672ZM15.4538 13.9517C15.2551 14.2923 15.0563 14.6159 14.8582 14.9315C15.4713 14.8605 16.0796 14.7582 16.6805 14.625C16.4929 14.05 16.2738 13.4841 16.0241 12.9296C15.8427 13.2703 15.6526 13.611 15.4538 13.9517ZM5.90268 9.77756C4.14105 10.3911 3.0791 11.2844 3.0791 11.984C3.11269 12.209 3.19403 12.4257 3.31847 12.6216C3.4429 12.8175 3.60797 12.9888 3.80421 13.1256C4.47823 13.6494 5.25116 14.0537 6.0841 14.318C6.23952 14.3714 6.40361 14.4119 6.5677 14.4632C6.83297 13.6253 7.15307 12.8031 7.52622 12.001C7.15235 11.2127 6.83505 10.4025 6.57636 9.57572C6.34333 9.63339 6.11877 9.70067 5.90268 9.77756ZM16.499 11.984C16.8823 12.7758 17.2103 13.5894 17.4813 14.42C17.5939 14.3858 17.706 14.3516 17.8094 14.3174C19.7351 13.6873 20.9294 12.7246 20.9358 11.9749C20.9358 11.2764 19.8305 10.3729 18.0255 9.75994C17.8441 9.70067 17.6459 9.64086 17.4477 9.58106C17.1861 10.3995 16.8692 11.2021 16.499 11.984ZM15.4458 10.0248C15.6445 10.3655 15.8346 10.6981 16.0068 11.0303C16.2467 10.4875 16.4542 9.93289 16.6285 9.36907C16.0419 9.23735 15.448 9.13503 14.8495 9.06257C15.0569 9.37708 15.2557 9.69266 15.4458 10.0248ZM7.38813 9.36213C7.56147 9.90732 7.76831 10.4611 8.00982 11.0313C8.18315 10.6992 8.37266 10.3671 8.56275 10.0349C8.75283 9.7028 8.95101 9.37922 9.15843 9.06364C8.53675 9.13893 7.94973 9.24092 7.38813 9.36213ZM13.0445 5.74177C12.8978 5.86939 12.751 6.00556 12.6037 6.14225C13.2034 6.78275 13.7545 7.46073 14.2532 8.17136C15.1321 8.24977 16.0037 8.38646 16.8613 8.58039C16.896 8.45277 16.9191 8.32461 16.948 8.19699C17.3524 6.23783 17.1034 4.73843 16.447 4.36411C16.303 4.28938 16.1395 4.25245 15.9744 4.25732C15.269 4.25411 14.1862 4.76192 13.0445 5.74017V5.74177ZM7.51756 4.38547C6.90454 4.73469 6.66245 6.13157 7.02529 7.97165C7.06863 8.16762 7.11196 8.36306 7.16338 8.56757C8.02217 8.38078 8.89344 8.24699 9.77145 8.16709C10.2719 7.45556 10.826 6.77752 11.4297 6.13798C11.3349 6.044 11.2309 5.9591 11.1361 5.87366C9.93438 4.82333 8.77883 4.26906 8.02426 4.26906C7.84692 4.26347 7.67142 4.30379 7.51756 4.38547ZM13.1653 8.09928C12.8091 7.62303 12.4249 7.16526 12.0144 6.72802C11.6261 7.14506 11.2373 7.60535 10.8588 8.09928C11.239 8.08219 11.6186 8.07364 12.0074 8.07364C12.3963 8.07364 12.7851 8.08059 13.1653 8.09928ZM10.281 12.0181C10.2729 11.7992 10.3117 11.5809 10.395 11.3759C10.4784 11.1708 10.6047 10.9829 10.7667 10.823C10.9287 10.6632 11.1233 10.5344 11.3393 10.4442C11.5553 10.3539 11.7884 10.3039 12.0253 10.2971C12.5034 10.3122 12.9554 10.5018 13.2824 10.8244C13.6094 11.147 13.7846 11.5763 13.7696 12.0181C13.7851 12.4603 13.61 12.8901 13.2828 13.2131C12.9557 13.536 12.5032 13.7258 12.0248 13.7407C11.7877 13.7339 11.5545 13.6839 11.3384 13.5935C11.1223 13.5032 10.9277 13.3743 10.7657 13.2142C10.6037 13.0542 10.4775 12.8661 10.3943 12.6608C10.3111 12.4556 10.2726 12.2372 10.281 12.0181Z" fill="#3996DB"/>
</svg>
