<svg width="24" height="24" viewBox="0 0 24 24" fill="none" xmlns="http://www.w3.org/2000/svg">
<g clip-path="url(#clip0_1306_485)">
<path d="M16.6295 16.6947C17.5151 16.5985 18.187 15.7975 18.1565 14.8362C18.126 13.875 17.3624 13.106 16.4462 13.106H16.3852C15.4383 13.1381 14.7053 13.9711 14.7359 14.9644C14.7665 15.445 14.9497 15.8616 15.2245 16.1499C14.1862 18.2968 12.598 19.8668 10.2158 21.1805C8.59715 22.0777 6.91744 22.3981 5.23772 22.1739C3.86334 21.9816 2.79441 21.3408 2.12241 20.2833C1.14516 18.7133 1.05356 17.015 1.87819 15.3169C2.4585 14.0993 3.37462 13.2021 3.95494 12.7535C3.83278 12.337 3.6495 11.6321 3.55791 11.1195C-0.870564 14.4838 -0.412407 19.0337 0.931405 21.1805C1.93922 22.7827 3.9855 23.7759 6.24553 23.7759C6.85631 23.7759 7.46709 23.7118 8.07797 23.5517C11.9872 22.7506 14.9497 20.3154 16.6295 16.6947ZM22.0047 12.7215C19.6836 9.86981 16.263 8.2998 12.3537 8.2998H11.8651C11.5902 7.72306 11.0099 7.3385 10.3686 7.3385H10.3074C9.36075 7.37056 8.62781 8.20361 8.65828 9.19697C8.68884 10.1582 9.45234 10.9272 10.3686 10.9272H10.4296C11.1015 10.8951 11.6818 10.4465 11.9261 9.83774H12.4759C14.797 9.83774 16.9959 10.5426 18.9812 11.9205C20.5082 12.9779 21.6077 14.3557 22.2185 16.0218C22.7377 17.3675 22.7071 18.6812 22.1573 19.8028C21.3022 21.5009 19.8668 22.4302 17.9733 22.4302C16.7516 22.4302 15.5911 22.0456 14.9802 21.7572C14.6443 22.0777 14.0334 22.5903 13.6058 22.9108C14.9192 23.5516 16.263 23.9041 17.5457 23.9041C20.4776 23.9041 22.6461 22.2058 23.4707 20.5077C24.3563 18.6492 24.2952 15.445 22.0047 12.7215ZM6.48984 17.2393C6.5204 18.2006 7.28391 18.9695 8.20012 18.9695H8.26125C9.20803 18.9376 9.94097 18.1044 9.9104 17.1111C9.87994 16.1498 9.11634 15.3809 8.20012 15.3809H8.13909C8.07797 15.3809 7.98628 15.3809 7.92534 15.4129C6.67312 13.2341 6.15394 10.8631 6.33722 8.2997C6.45928 6.3772 7.07016 4.711 8.13909 3.33317C9.02475 2.14763 10.735 1.57089 11.8957 1.53892C15.1329 1.47479 16.5072 5.70427 16.5989 7.40252C16.9959 7.49862 17.6678 7.72296 18.126 7.88318C17.7594 2.6925 14.7053 0.000976562 11.7735 0.000976562C9.02475 0.000976562 6.48984 2.0837 5.48194 5.15969C4.07709 9.261 4.99331 13.2021 6.70359 16.3102C6.55097 16.5344 6.45928 16.8868 6.48984 17.2393Z" fill="#764ABC"/>
</g>
<defs>
<clipPath id="clip0_1306_485">
<rect width="24" height="24" fill="white"/>
</clipPath>
</defs>
</svg>
