<svg width="28" height="18" viewBox="0 0 28 18" fill="none" xmlns="http://www.w3.org/2000/svg">
<path d="M14.096 0.428711C10.4366 0.428711 8.14893 2.33371 7.23426 6.143C8.6066 4.238 10.2074 3.52371 12.0375 4.00014C13.0818 4.27157 13.8277 5.06014 14.6538 5.933C15.9987 7.35442 17.5563 9.00014 20.9577 9.00014C24.617 9.00014 26.9047 7.09514 27.8194 3.28585C26.447 5.19085 24.8462 5.90514 23.0162 5.42871C21.9725 5.15728 21.226 4.36871 20.3998 3.49585C19.0549 2.07443 17.4973 0.428711 14.096 0.428711ZM7.23426 9.00014C3.57491 9.00014 1.28722 10.9051 0.372559 14.7144C1.7449 12.8094 3.34573 12.0951 5.17575 12.5716C6.21942 12.843 6.96597 13.6316 7.79212 14.5044C9.13701 15.9259 10.6946 17.5716 14.096 17.5716C17.7553 17.5716 20.043 15.6666 20.9577 11.8573C19.5853 13.7623 17.9845 14.4766 16.1545 14.0001C15.1108 13.7287 14.3643 12.9401 13.5381 12.0673C12.1932 10.6459 10.6356 9.00014 7.23426 9.00014Z" fill="#16BDCA"/>
</svg>
