<svg width="24" height="24" viewBox="0 0 24 24" fill="none" xmlns="http://www.w3.org/2000/svg">
<g clip-path="url(#clip0_1306_304)">
<rect width="24" height="24" fill="#3178C6"/>
<path d="M7.5635 21V12.328H4.5715V10.328H13.1955V12.328H10.1555V21H7.5635ZM18.2981 21.224C17.7541 21.224 17.2635 21.1973 16.8261 21.144C16.3888 21.0907 15.9835 21.0107 15.6101 20.904C15.2368 20.7973 14.8741 20.6587 14.5221 20.488V18.024C15.0128 18.4187 15.5675 18.7173 16.1861 18.92C16.8048 19.1227 17.3915 19.224 17.9461 19.224C18.4368 19.224 18.8101 19.1333 19.0661 18.952C19.3328 18.76 19.4661 18.472 19.4661 18.088C19.4661 17.8 19.3435 17.5707 19.0981 17.4C18.8635 17.2187 18.5488 17.064 18.1541 16.936C17.7595 16.7973 17.3168 16.6427 16.8261 16.472C16.5168 16.376 16.2128 16.2533 15.9141 16.104C15.6155 15.9547 15.3488 15.768 15.1141 15.544C14.8795 15.3093 14.6928 15.0267 14.5541 14.696C14.4155 14.3653 14.3461 13.96 14.3461 13.48C14.3461 13.0427 14.4261 12.6213 14.5861 12.216C14.7461 11.8107 14.9915 11.448 15.3221 11.128C15.6635 10.808 16.0955 10.5573 16.6181 10.376C17.1408 10.184 17.7541 10.088 18.4581 10.088C18.8955 10.088 19.2795 10.1147 19.6101 10.168C19.9515 10.2213 20.2768 10.3013 20.5861 10.408C20.8955 10.504 21.2101 10.632 21.5301 10.792V13.288C21.2848 13.0853 21.0075 12.8987 20.6981 12.728C20.3995 12.5467 20.0848 12.3973 19.7541 12.28C19.4235 12.1627 19.0768 12.0987 18.7141 12.088C18.3941 12.0773 18.1008 12.1093 17.8341 12.184C17.5675 12.2587 17.3595 12.3813 17.2101 12.552C17.0608 12.712 16.9861 12.92 16.9861 13.176C16.9861 13.4747 17.0768 13.7093 17.2581 13.88C17.4395 14.0507 17.6901 14.1947 18.0101 14.312C18.3301 14.4187 18.6875 14.536 19.0821 14.664C19.5195 14.792 19.9195 14.936 20.2821 15.096C20.6555 15.2453 20.9808 15.4373 21.2581 15.672C21.5355 15.9067 21.7488 16.1947 21.8981 16.536C22.0475 16.8773 22.1221 17.288 22.1221 17.768C22.1221 18.408 21.9728 18.9947 21.6741 19.528C21.3755 20.0507 20.9435 20.4667 20.3781 20.776C19.8128 21.0747 19.1195 21.224 18.2981 21.224Z" fill="white"/>
</g>
<defs>
<clipPath id="clip0_1306_304">
<rect width="24" height="24" fill="white"/>
</clipPath>
</defs>
</svg>
